{
  "accessors": [
    {
      "bufferView": 2,
      "componentType": 5126,
      "count": 90,
      "max": [
        1.0120468139648438,
        1.2963961362838745,
        1.0070176124572754
      ],
      "min": [
        -1.0153106451034546,
        0.0,
        -1.0070176124572754
      ],
      "type": "VEC3"
    },
    {
      "bufferView": 2,
      "byteOffset": 1080,
      "componentType": 5126,
      "count": 90,
      "max": [
        1.0,
        1.0,
        1.0
      ],
      "min": [
        -1.0,
        -0.0023251438979059458,
        -1.0
      ],
      "type": "VEC3"
    },
    {
      "bufferView": 1,
      "componentType": 5126,
      "count": 90,
      "max": [
        0.7010467648506165,
        0.7032960653305054
      ],
      "min": [
        0.2989533245563507,
        0.296703964471817
      ],
      "type": "VEC2"
    },
    {
      "bufferView": 0,
      "componentType": 5125,
      "count": 192,
      "type": "SCALAR"
    },
    {
      "bufferView": 2,
      "byteOffset": 2160,
      "componentType": 5126,
      "count": 38,
      "max": [
        1.2499393224716187,
        0.0,
        1.1024634838104248
      ],
      "min": [
        -1.2499393224716187,
        0.0,
        -1.1024634838104248
      ],
      "type": "VEC3"
    },
    {
      "bufferView": 2,
      "byteOffset": 2616,
      "componentType": 5126,
      "count": 38,
      "max": [
        0.0,
        1.0,
        0.0
      ],
      "min": [
        0.0,
        1.0,
        0.0
      ],
      "type": "VEC3"
    },
    {
      "bufferView": 1,
      "byteOffset": 720,
      "componentType": 5126,
      "count": 38,
      "max": [
        0.8820135593414307,
        1.0
      ],
      "min": [
        0.0,
        0.0
      ],
      "type": "VEC2"
    },
    {
      "bufferView": 0,
      "byteOffset": 768,
      "componentType": 5125,
      "count": 108,
      "type": "SCALAR"
    },
    {
      "bufferView": 2,
      "byteOffset": 3072,
      "componentType": 5126,
      "count": 28,
      "max": [
        1.0,
        1.2963961362838745,
        1.0
      ],
      "min": [
        -1.0,
        0.0,
        -1.0
      ],
      "type": "VEC3"
    },
    {
      "bufferView": 2,
      "byteOffset": 3408,
      "componentType": 5126,
      "count": 28,
      "max": [
        1.0,
        0.0,
        1.0
      ],
      "min": [
        -1.0,
        0.0,
        -1.0
      ],
      "type": "VEC3"
    },
    {
      "bufferView": 1,
      "byteOffset": 1024,
      "componentType": 5126,
      "count": 28,
      "max": [
        0.25862523913383484,
        1.0
      ],
      "min": [
        0.0,
        0.0
      ],
      "type": "VEC2"
    },
    {
      "bufferView": 0,
      "byteOffset": 1200,
      "componentType": 5125,
      "count": 48,
      "type": "SCALAR"
    },
    {
      "bufferView": 2,
      "byteOffset": 3744,
      "componentType": 5126,
      "count": 279,
      "max": [
        1.0295946598052979,
        0.9955089092254639,
        0.03599810600280762
      ],
      "min": [
        -1.0295946598052979,
        -1.0000001192092896,
        -2.029726505279541
      ],
      "type": "VEC3"
    },
    {
      "bufferView": 2,
      "byteOffset": 7092,
      "componentType": 5126,
      "count": 279,
      "max": [
        1.0,
        1.0,
        1.0
      ],
      "min": [
        -1.0,
        -1.0,
        -1.0
      ],
      "type": "VEC3"
    },
    {
      "bufferView": 1,
      "byteOffset": 1248,
      "componentType": 5126,
      "count": 279,
      "max": [
        0.8641993403434753,
        1.0000001192092896
      ],
      "min": [
        0.0,
        0.0
      ],
      "type": "VEC2"
    },
    {
      "bufferView": 0,
      "byteOffset": 1392,
      "componentType": 5125,
      "count": 918,
      "type": "SCALAR"
    },
    {
      "bufferView": 2,
      "byteOffset": 10440,
      "componentType": 5126,
      "count": 16,
      "max": [
        1.0,
        0.9650866389274597,
        -0.029726684093475342
      ],
      "min": [
        -1.0,
        -1.0,
        -2.029726505279541
      ],
      "type": "VEC3"
    },
    {
      "bufferView": 2,
      "byteOffset": 10632,
      "componentType": 5126,
      "count": 16,
      "max": [
        1.0,
        0.999923050403595,
        0.0
      ],
      "min": [
        -1.0,
        0.0,
        -0.9285388588905334
      ],
      "type": "VEC3"
    },
    {
      "bufferView": 1,
      "byteOffset": 3480,
      "componentType": 5126,
      "count": 16,
      "max": [
        2.7029054164886475,
        5.149724006652832
      ],
      "min": [
        -1.6805784702301025,
        -4.2343854904174805
      ],
      "type": "VEC2"
    },
    {
      "bufferView": 0,
      "byteOffset": 5064,
      "componentType": 5125,
      "count": 24,
      "type": "SCALAR"
    },
    {
      "bufferView": 2,
      "byteOffset": 10824,
      "componentType": 5126,
      "count": 279,
      "max": [
        1.0295946598052979,
        0.6572508811950684,
        0.3952178955078125
      ],
      "min": [
        -1.0295946598052979,
        -1.338258147239685,
        -1.6705093383789063
      ],
      "type": "VEC3"
    },
    {
      "bufferView": 2,
      "byteOffset": 14172,
      "componentType": 5126,
      "count": 279,
      "max": [
        1.0,
        1.0,
        1.0
      ],
      "min": [
        -1.0,
        -1.0,
        -1.0
      ],
      "type": "VEC3"
    },
    {
      "bufferView": 1,
      "byteOffset": 3608,
      "componentType": 5126,
      "count": 279,
      "max": [
        0.8641993403434753,
        1.0000001192092896
      ],
      "min": [
        0.0,
        0.0
      ],
      "type": "VEC2"
    },
    {
      "bufferView": 0,
      "byteOffset": 5160,
      "componentType": 5125,
      "count": 918,
      "type": "SCALAR"
    },
    {
      "bufferView": 2,
      "byteOffset": 17520,
      "componentType": 5126,
      "count": 16,
      "max": [
        1.0,
        0.6268285512924194,
        0.32949066162109375
      ],
      "min": [
        -1.0,
        -1.3382580280303955,
        -1.6705093383789063
      ],
      "type": "VEC3"
    },
    {
      "bufferView": 2,
      "byteOffset": 17712,
      "componentType": 5126,
      "count": 16,
      "max": [
        1.0,
        0.999923050403595,
        0.0
      ],
      "min": [
        -1.0,
        0.0,
        -0.9285386204719543
      ],
      "type": "VEC3"
    },
    {
      "bufferView": 1,
      "byteOffset": 5840,
      "componentType": 5126,
      "count": 16,
      "max": [
        2.7029054164886475,
        5.149724006652832
      ],
      "min": [
        -1.6805784702301025,
        -4.2343854904174805
      ],
      "type": "VEC2"
    },
    {
      "bufferView": 0,
      "byteOffset": 8832,
      "componentType": 5125,
      "count": 24,
      "type": "SCALAR"
    },
    {
      "bufferView": 2,
      "byteOffset": 17904,
      "componentType": 5126,
      "count": 240,
      "max": [
        298.6551513671875,
        1.0,
        1.8989102840423584
      ],
      "min": [
        -1.2839078903198242,
        -1.0,
        -567.701171875
      ],
      "type": "VEC3"
    },
    {
      "bufferView": 2,
      "byteOffset": 20784,
      "componentType": 5126,
      "count": 240,
      "max": [
        1.0,
        0.0,
        1.0
      ],
      "min": [
        -1.0,
        -0.6099923849105835,
        -1.0
      ],
      "type": "VEC3"
    },
    {
      "bufferView": 1,
      "byteOffset": 5968,
      "componentType": 5126,
      "count": 240,
      "max": [
        1.0,
        1.0
      ],
      "min": [
        -8.940696716308594e-08,
        0.01000000536441803
      ],
      "type": "VEC2"
    },
    {
      "bufferView": 0,
      "byteOffset": 8928,
      "componentType": 5125,
      "count": 576,
      "type": "SCALAR"
    },
    {
      "bufferView": 2,
      "byteOffset": 23664,
      "componentType": 5126,
      "count": 58,
      "max": [
        297.9880065917969,
        0.9905434250831604,
        1.446075439453125
      ],
      "min": [
        -0.8296966552734375,
        -0.9992580413818359,
        -567.136962890625
      ],
      "type": "VEC3"
    },
    {
      "bufferView": 2,
      "byteOffset": 24360,
      "componentType": 5126,
      "count": 58,
      "max": [
        1.0,
        0.0,
        1.0
      ],
      "min": [
        -1.0,
        0.0,
        -1.0
      ],
      "type": "VEC3"
    },
    {
      "bufferView": 1,
      "byteOffset": 7888,
      "componentType": 5126,
      "count": 58,
      "max": [
        20.652469635009766,
        1.6952040195465088
      ],
      "min": [
        -19.652467727661133,
        -0.24091893434524536
      ],
      "type": "VEC2"
    },
    {
      "bufferView": 0,
      "byteOffset": 11232,
      "componentType": 5125,
      "count": 108,
      "type": "SCALAR"
    },
    {
      "bufferView": 2,
      "byteOffset": 25056,
      "componentType": 5126,
      "count": 12,
      "max": [
        1.0,
        0.0,
        1.0
      ],
      "min": [
        -1.0,
        0.0,
        -1.0
      ],
      "type": "VEC3"
    },
    {
      "bufferView": 2,
      "byteOffset": 25200,
      "componentType": 5126,
      "count": 12,
      "max": [
        0.0,
        1.0,
        -0.0
      ],
      "min": [
        0.0,
        1.0,
        -0.0
      ],
      "type": "VEC3"
    },
    {
      "bufferView": 1,
      "byteOffset": 8352,
      "componentType": 5126,
      "count": 12,
      "max": [
        0.942222535610199,
        0.9102950096130371
      ],
      "min": [
        0.05912643298506737,
        0.08821961283683777
      ],
      "type": "VEC2"
    },
    {
      "bufferView": 0,
      "byteOffset": 11664,
      "componentType": 5125,
      "count": 36,
      "type": "SCALAR"
    }
  ],
  "asset": {
    "extras": {
      "author": "DESAIN (https://sketchfab.com/DESAIN)",
      "license": "CC-BY-4.0 (http://creativecommons.org/licenses/by/4.0/)",
      "source": "https://sketchfab.com/3d-models/futsal-court-b103062708d6410095cafc3e896c1240",
      "title": "Futsal court"
    },
    "generator": "Sketchfab-16.16.0",
    "version": "2.0"
  },
  "bufferViews": [
    {
      "buffer": 0,
      "byteLength": 11808,
      "name": "floatBufferViews",
      "target": 34963
    },
    {
      "buffer": 0,
      "byteLength": 8448,
      "byteOffset": 11808,
      "byteStride": 8,
      "name": "floatBufferViews",
      "target": 34962
    },
    {
      "buffer": 0,
      "byteLength": 25344,
      "byteOffset": 20256,
      "byteStride": 12,
      "name": "floatBufferViews",
      "target": 34962
    }
  ],
  "buffers": [
    {
      "byteLength": 45600,
      "uri": "scene.bin"
    }
  ],
  "images": [
    {
      "uri": "textures/material_0_baseColor.png"
    },
    {
      "uri": "textures/piso_exterior_baseColor.png"
    },
    {
      "uri": "textures/grama_baseColor.png"
    }
  ],
  "materials": [
    {
      "doubleSided": true,
      "name": "material_0",
      "pbrMetallicRoughness": {
        "baseColorTexture": {
          "index": 0
        },
        "metallicFactor": 0.0,
        "roughnessFactor": 0.6
      }
    },
    {
      "doubleSided": true,
      "name": "material",
      "pbrMetallicRoughness": {
        "baseColorFactor": [
          0.5054543983643133,
          0.5054543983643133,
          0.5054543983643133,
          1.0
        ],
        "metallicFactor": 0.0,
        "roughnessFactor": 0.986364
      }
    },
    {
      "doubleSided": true,
      "name": "piso_exterior",
      "pbrMetallicRoughness": {
        "baseColorTexture": {
          "index": 1
        },
        "metallicFactor": 0.0
      }
    },
    {
      "doubleSided": true,
      "name": "painel",
      "pbrMetallicRoughness": {
        "baseColorTexture": {
          "index": 1
        },
        "metallicFactor": 0.0,
        "roughnessFactor": 0.5
      }
    },
    {
      "doubleSided": true,
      "name": "Materiais.007",
      "pbrMetallicRoughness": {
        "metallicFactor": 0.0,
        "roughnessFactor": 0.5
      }
    },
    {
      "doubleSided": true,
      "name": "Materiais",
      "pbrMetallicRoughness": {
        "baseColorTexture": {
          "index": 0
        },
        "metallicFactor": 0.0,
        "roughnessFactor": 0.5
      }
    },
    {
      "doubleSided": true,
      "name": "grama",
      "pbrMetallicRoughness": {
        "baseColorTexture": {
          "index": 2
        },
        "metallicFactor": 0.0
      }
    }
  ],
  "meshes": [
    {
      "name": "Object_0",
      "primitives": [
        {
          "attributes": {
            "NORMAL": 1,
            "POSITION": 0,
            "TEXCOORD_0": 2
          },
          "indices": 3,
          "material": 1,
          "mode": 4
        }
      ]
    },
    {
      "name": "Object_1",
      "primitives": [
        {
          "attributes": {
            "NORMAL": 5,
            "POSITION": 4,
            "TEXCOORD_0": 6
          },
          "indices": 7,
          "material": 2,
          "mode": 4
        }
      ]
    },
    {
      "name": "Object_2",
      "primitives": [
        {
          "attributes": {
            "NORMAL": 9,
            "POSITION": 8,
            "TEXCOORD_0": 10
          },
          "indices": 11,
          "material": 3,
          "mode": 4
        }
      ]
    },
    {
      "name": "Object_3",
      "primitives": [
        {
          "attributes": {
            "NORMAL": 13,
            "POSITION": 12,
            "TEXCOORD_0": 14
          },
          "indices": 15,
          "material": 4,
          "mode": 4
        }
      ]
    },
    {
      "name": "Object_4",
      "primitives": [
        {
          "attributes": {
            "NORMAL": 17,
            "POSITION": 16,
            "TEXCOORD_0": 18
          },
          "indices": 19,
          "material": 0,
          "mode": 4
        }
      ]
    },
    {
      "name": "Object_5",
      "primitives": [
        {
          "attributes": {
            "NORMAL": 21,
            "POSITION": 20,
            "TEXCOORD_0": 22
          },
          "indices": 23,
          "material": 4,
          "mode": 4
        }
      ]
    },
    {
      "name": "Object_6",
      "primitives": [
        {
          "attributes": {
            "NORMAL": 25,
            "POSITION": 24,
            "TEXCOORD_0": 26
          },
          "indices": 27,
          "material": 0,
          "mode": 4
        }
      ]
    },
    {
      "name": "Object_7",
      "primitives": [
        {
          "attributes": {
            "NORMAL": 29,
            "POSITION": 28,
            "TEXCOORD_0": 30
          },
          "indices": 31,
          "material": 1,
          "mode": 4
        }
      ]
    },
    {
      "name": "Object_8",
      "primitives": [
        {
          "attributes": {
            "NORMAL": 33,
            "POSITION": 32,
            "TEXCOORD_0": 34
          },
          "indices": 35,
          "material": 5,
          "mode": 4
        }
      ]
    },
    {
      "name": "Object_9",
      "primitives": [
        {
          "attributes": {
            "NORMAL": 37,
            "POSITION": 36,
            "TEXCOORD_0": 38
          },
          "indices": 39,
          "material": 6,
          "mode": 4
        }
      ]
    }
  ],
  "nodes": [
    {
      "children": [
        1
      ],
      "matrix": [
        1.0,
        0.0,
        0.0,
        0.0,
        0.0,
        2.220446049250313e-16,
        -1.0,
        0.0,
        0.0,
        1.0,
        2.220446049250313e-16,
        0.0,
        0.0,
        0.0,
        0.0,
        1.0
      ],
      "name": "Sketchfab_model"
    },
    {
      "children": [
        2
      ],
      "name": "root"
    },
    {
      "children": [
        3,
        7,
        10,
        13,
        15,
        17
      ],
      "matrix": [
        1.0,
        0.0,
        0.0,
        0.0,
        0.0,
        2.220446049250313e-16,
        1.0,
        0.0,
        0.0,
        -1.0,
        2.220446049250313e-16,
        0.0,
        0.0,
        0.0,
        0.0,
        1.0
      ],
      "name": "GLTF_SceneRootNode"
    },
    {
      "children": [
        4,
        5,
        6
      ],
      "matrix": [
        11.0,
        0.0,
        0.0,
        0.0,
        0.0,
        1.0,
        0.0,
        0.0,
        0.0,
        0.0,
        21.0,
        0.0,
        0.0,
        0.0,
        0.0,
        1.0
      ],
      "name": "Plano_0"
    },
    {
      "mesh": 0,
      "name": "Object_4"
    },
    {
      "mesh": 1,
      "name": "Object_5"
    },
    {
      "mesh": 2,
      "name": "Object_6"
    },
    {
      "children": [
        8,
        9
      ],
      "matrix": [
        1.5499999523162842,
        0.0,
        0.0,
        0.0,
        0.0,
        1.0499999523162842,
        0.0,
        0.0,
        0.0,
        0.0,
        0.5,
        0.0,
        0.0,
        1.0550978183746338,
        -20.992504119873047,
        1.0
      ],
      "name": "gol_1"
    },
    {
      "mesh": 3,
      "name": "Object_8"
    },
    {
      "mesh": 4,
      "name": "Object_9"
    },
    {
      "children": [
        11,
        12
      ],
      "matrix": [
        1.5499999523162842,
        0.0,
        0.0,
        0.0,
        0.0,
        1.0499999523162842,
        0.0,
        0.0,
        -0.0,
        -0.0,
        -0.5,
        -0.0,
        0.0,
        1.410268783569336,
        21.197114944458008,
        1.0
      ],
      "name": "gol2_2"
    },
    {
      "mesh": 5,
      "name": "Object_11"
    },
    {
      "mesh": 6,
      "name": "Object_12"
    },
    {
      "children": [
        14
      ],
      "matrix": [
        0.07412702590227127,
        0.0,
        0.0,
        0.0,
        0.0,
        -2.313002347946167,
        -0.0,
        -0.0,
        0.0,
        0.0,
        0.07412702590227127,
        0.0,
        -11.022706031799316,
        3.5875253677368164,
        20.96649169921875,
        1.0
      ],
      "name": "col grade_8"
    },
    {
      "mesh": 7,
      "name": "Object_14"
    },
    {
      "children": [
        16
      ],
      "matrix": [
        0.07412702590227127,
        0.0,
        0.0,
        0.0,
        0.0,
        -2.313002347946167,
        -0.0,
        -0.0,
        0.0,
        0.0,
        0.07412702590227127,
        0.0,
        -11.022706031799316,
        3.5875253677368164,
        20.96649169921875,
        1.0
      ],
      "name": "grade_9"
    },
    {
      "mesh": 8,
      "name": "Object_16"
    },
    {
      "children": [
        18
      ],
      "matrix": [
        11.0,
        0.0,
        0.0,
        0.0,
        0.0,
        1.0,
        0.0,
        0.0,
        0.0,
        0.0,
        21.0,
        0.0,
        0.0,
        0.0,
        0.0,
        1.0
      ],
      "name": "gramado_10"
    },
    {
      "mesh": 9,
      "name": "Object_18"
    }
  ],
  "samplers": [
    {
      "magFilter": 9729,
      "minFilter": 9987,
      "wrapS": 10497,
      "wrapT": 10497
    }
  ],
  "scene": 0,
  "scenes": [
    {
      "name": "Sketchfab_Scene",
      "nodes": [
        0
      ]
    }
  ],
  "textures": [
    {
      "sampler": 0,
      "source": 0
    },
    {
      "sampler": 0,
      "source": 1
    },
    {
      "sampler": 0,
      "source": 2
    }
  ]
}
